HIERARCHY
ROOT Hips
{
  OFFSET -187.679 86.5976 -156.378
  CHANNELS 6 Xposition Yposition Zposition Zrotation Xrotation Yrotation
  JOINT LeftUpLeg
  {
    OFFSET 8.64259 1.95398 -2.38835
    CHANNELS 3 Zrotation Xrotation Yrotation
    JOINT LeftLeg
    {
      OFFSET 43.7702 0 0
      CHANNELS 3 Zrotation Xrotation Yrotation
      JOINT LeftFoot
      {
        OFFSET 40.6238 0 0
        CHANNELS 3 Zrotation Xrotation Yrotation
        JOINT LeftToeBase
        {
          OFFSET 12.7242 0 0
          CHANNELS 3 Zrotation Xrotation Yrotation
          End Site
          {
            OFFSET 0 0 0
          }
        }
      }
    }
  }
  JOINT RightUpLeg
  {
    OFFSET -8.2249 1.95398 -2.59336
    CHANNELS 3 Zrotation Xrotation Yrotation
    JOINT RightLeg
    {
      OFFSET 43.5653 0 0
      CHANNELS 3 Zrotation Xrotation Yrotation
      JOINT RightFoot
      {
        OFFSET 40.6238 0 0
        CHANNELS 3 Zrotation Xrotation Yrotation
        JOINT RightToeBase
        {
          OFFSET 12.7242 0 0
          CHANNELS 3 Zrotation Xrotation Yrotation
          End Site
          {
            OFFSET 0 0 0
          }
        }
      }
    }
  }
  JOINT Spine
  {
    OFFSET 0.165834 0.87714 6.61349
    CHANNELS 3 Zrotation Xrotation Yrotation
    JOINT Spine1
    {
      OFFSET 7.38963 1.71661e-005 0
      CHANNELS 3 Zrotation Xrotation Yrotation
      JOINT Spine2
      {
        OFFSET 11.9445 1.14441e-005 0
        CHANNELS 3 Zrotation Xrotation Yrotation
        JOINT Spine3
        {
          OFFSET 14.7254 4.19617e-005 0
          CHANNELS 3 Zrotation Xrotation Yrotation
          JOINT Spine4
          {
            OFFSET 10.9679 0 0
            CHANNELS 3 Zrotation Xrotation Yrotation
            JOINT RightShoulder
            {
              OFFSET 2.46616 -1.6653 3.69651
              CHANNELS 3 Zrotation Xrotation Yrotation
              JOINT RightArm
              {
                OFFSET 13.0012 0 0
                CHANNELS 3 Zrotation Xrotation Yrotation
                JOINT RightForeArm
                {
                  OFFSET 28.7848 1.52588e-005 0
                  CHANNELS 3 Zrotation Xrotation Yrotation
                  JOINT RightHand
                  {
                    OFFSET 26.5688 1.52588e-005 0
                    CHANNELS 3 Zrotation Xrotation Yrotation
                    End Site
                    {
                      OFFSET 0 0 0
                    }
                  }
                }
              }
            }
            JOINT LeftShoulder
            {
              OFFSET 2.38034 -1.29275 -3.7523
              CHANNELS 3 Zrotation Xrotation Yrotation
              JOINT LeftArm
              {
                OFFSET 16.3182 6.10352e-005 0
                CHANNELS 3 Zrotation Xrotation Yrotation
                JOINT LeftForeArm
                {
                  OFFSET 27.0901 0 0
                  CHANNELS 3 Zrotation Xrotation Yrotation
                  JOINT LeftHand
                  {
                    OFFSET 24.5451 1.52588e-005 0
                    CHANNELS 3 Zrotation Xrotation Yrotation
                    End Site
                    {
                      OFFSET 0 0 0
                    }
                  }
                }
              }
            }
            JOINT Neck
            {
              OFFSET 5.0226 -0.0266342 0
              CHANNELS 3 Zrotation Xrotation Yrotation
              JOINT Head
              {
                OFFSET 6.69363 2.86102e-005 0
                CHANNELS 3 Zrotation Xrotation Yrotation
                End Site
                {
                  OFFSET 0 0 0
                }
              }
            }
          }
        }
      }
    }
  }
}
MOTION
Frames:	7
Frame Time:	0.0416667
0.360415 94.767 -25.4691 98.8659 -62.1211 100.554 -175.768 19.0029 103.328 -57.5999 44.4943 15.4584 85.1277 12.0301 -3.83779 14.798 -6.09866 1.0203 168.681 15.0633 65.1271 -31.0048 -9.47598 -6.37824 63.055 -1.39192 -0.618404 17.8647 -1.72993 0.0191068 -0.372379 7.9561 -90.458 10.9577 -0.953294 -0.820593 -0.713119 -0.988489 -0.777837 -23.2477 -0.662633 -1.06914 -3.2351 -0.662614 -1.06914 91.1398 -46.3611 -99.6822 37.375 -9.01218 12.1813 -16.5996 -7.18709 -14.6087 -7.78088 0.123009 -7.29673 -85.8363 -39.3639 83.4439 -14.9845 25.3645 -9.35116 12.4801 -7.16112 -38.4068 -4.05715 -0.108562 -2.70365 -26.5402 -4.91396 -7.2574 5.25383 -5.40962 3.92488 
-9.26634 91.6824 -18.5963 99.1391 -61.6415 99.3242 -174.292 18.4976 110.274 -57.2348 48.2212 18.0447 86.027 11.6513 -5.14265 22.2879 -4.562 5.20125 168.383 19.3481 64.2111 -36.7562 -9.70616 -4.94376 60.5021 -0.9158 0.00401769 22.9187 -0.524977 -1.49146 -0.61918 8.03203 -90.3295 10.8082 -1.38479 -0.525178 -0.862066 -1.40658 -0.46372 -23.401 -1.16293 -0.91713 -3.38838 -1.16294 -0.917126 92.3168 -45.9484 -97.8776 39.971 -9.54577 14.637 -16.3144 -8.8824 -13.5145 -7.04153 0.135126 -7.7841 -85.5193 -39.4471 83.9989 -17.4342 21.5452 -5.06519 12.4559 -6.22207 -36.059 -1.87847 -0.0781806 -2.00412 -26.2726 -5.69967 -6.92967 4.87657 -6.26207 2.54585 
-21.2068 90.3198 -10.8682 106.634 -64.5157 105.179 -172.927 15.3248 116.313 -59.8348 54.8912 25.4025 68.9666 5.04191 -0.648573 36.7981 0.0865734 11.4031 167.612 21.1338 67.3329 -49.1034 -10.2689 -3.46925 65.8174 -2.99644 1.60294 38.8528 2.19261 -3.2742 -0.522803 8.44436 -90.1158 9.98406 -1.09441 -0.141011 -1.68643 -1.09955 -0.0927138 -24.2246 -1.00143 -0.463443 -4.21198 -1.00142 -0.463443 92.3095 -45.1342 -98.0605 41.3793 -10.867 13.4831 -15.3911 -9.73947 -11.223 -8.13552 0.128249 -7.24971 -84.6588 -39.7303 85.516 -20.8402 15.9366 3.60762 11.1561 -7.00243 -34.1021 -3.60775 -0.107532 -2.26327 -27.0045 -4.01404 -2.93576 5.26469 -4.36315 0.355341 
-32.334 92.2077 -4.88434 113.073 -67.747 111.964 178.397 18.0284 114.96 -79.1854 53.585 37.5085 53.2583 -2.08344 -0.285917 15.3916 -6.24302 2.39124 168.191 18.6277 74.8845 -52.5314 -7.65354 -1.61021 71.9622 -4.77292 3.30912 38.5545 1.29576 0.849745 -0.17352 8.80609 -90.14 9.2613 -0.408837 -0.247715 -2.4096 -0.419337 -0.229485 -24.945 -0.315475 -0.359132 -4.93233 -0.31549 -0.359137 90.3863 -45.2492 -101.164 37.0251 -13.1472 10.1282 -15.4336 -9.17986 -12.4823 -10.0224 0.112721 -6.60604 -84.4023 -41.0061 86.1431 -24.5532 13.0303 10.8191 10.9235 -6.6663 -33.3989 -5.16039 -0.115166 -3.0126 -28.8246 -2.56168 -0.758938 6.13047 -2.78104 -1.00487 
-40.6671 95.0552 -0.87201 114.787 -71.7539 113.221 174.465 27.8467 107.472 -77.5315 41.2831 23.2942 61.3564 2.1662 2.33267 7.91077 -7.78948 -1.4256 169.359 15.0101 80.1829 -47.254 -7.27159 -0.194342 73.8364 -5.26103 3.31509 35.4579 0.295335 3.18958 0.312746 8.85086 -90.1836 9.17298 0.541563 -0.402313 -2.49792 0.523334 -0.425769 -25.0338 0.637429 -0.220956 -5.02115 0.637443 -0.220949 91.0197 -44.0809 -100.42 29.7113 -11.6592 4.55264 -17.4664 -8.38347 -17.6744 -9.91616 0.104024 -6.51303 -84.472 -42.185 86.2004 -29.9808 13.9228 14.4374 11.8801 -4.58065 -30.1647 -4.18815 -0.11977 -2.10375 -29.91 -2.51597 -0.0288106 6.72519 -2.69373 -1.38656 
-47.1666 97.5033 2.90939 114.121 -76.6275 112.17 -177.883 36.507 96.1418 -63.7708 31.5289 7.86266 66.0258 3.34451 -0.769359 12.3841 -7.42266 1.55438 169.927 12.2358 83.5112 -40.5832 -9.88622 1.68175 73.3793 -4.96857 2.81409 31.2404 -0.709056 4.13206 0.747447 8.73073 -90.2178 9.41661 1.39248 -0.534168 -2.2537 1.36762 -0.594955 -24.795 1.48862 -0.0908863 -4.78234 1.48862 -0.0908932 91.4176 -43.0272 -100.019 23.8352 -8.76339 -1.0662 -19.9959 -6.99656 -26.0151 -11.3303 0.0553548 -5.78808 -83.6949 -41.2362 87.3602 -36.8607 15.2031 18.0694 11.4904 -4.52974 -28.4494 -6.08667 -0.0876581 -4.23798 -30.2889 -2.35836 0.412763 7.86955 -2.45481 -1.04367 
-52.8588 98.269 7.30243 114.887 -80.5095 114.208 -170.347 39.0286 85.9361 -51.6262 19.4075 -2.7759 67.4078 2.84529 -3.25323 18.8166 -6.60844 6.06929 170.987 9.20744 87.8904 -36.7491 -12.0974 3.32224 73.5017 -5.0145 1.56242 28.0226 -1.63251 5.10688 0.953567 8.60154 -90.514 9.67766 1.66867 -1.15073 -1.99281 1.61642 -1.22306 -24.535 1.93733 -0.595906 -4.52232 1.93734 -0.5959 91.588 -42.2001 -99.9341 20.6474 -7.65351 -4.85569 -23.8098 -7.49837 -37.7185 -10.2077 -0.10312 -3.97195 -83.3477 -40.9986 87.9133 -41.3375 16.8075 21.7145 10.7736 -5.17952 -27.2326 -5.82018 -0.109287 -3.40231 -30.6431 -2.15406 1.93425 7.98747 -1.99242 -0.478486 
